simulation
nRows=65
nColumns=15
endheader
time  TH_x TH_y TH_z SC_y  SC_z  SC_x  AC_y  AC_z  AC_x  GH_y  GH_z  GH_yy  EL_x  PS_y
0.000000  0.000000  0.000000  0.000000  -21.784000  6.303000  1.000000  46.295000  4.899000  -1.180000  0.000000  8.000000  0.000000  5.000000  0.000000
0.000000  0.000000  0.000000  0.000000  -21.784000  6.303000  1.000000  46.295000  4.899000  -1.180000  0.000000  8.000000  -0.000000  5.000000  0.000000
0.000001  0.000000  0.000000  0.000000  -21.784000  6.303000  1.000000  46.295000  4.899000  -1.180000  0.000000  8.000000  -0.000000  5.000000  0.000000
0.000001  0.000000  0.000000  0.000000  -21.784000  6.303000  1.000000  46.295000  4.899000  -1.180000  0.000000  8.000000  -0.000000  5.000000  0.000000
0.000003  0.000000  0.000000  0.000000  -21.784000  6.303000  1.000002  46.295000  4.898999  -1.180001  0.000001  8.000000  -0.000000  5.000000  0.000000
0.000004  0.000000  0.000000  0.000000  -21.784000  6.303000  1.000004  46.294999  4.898997  -1.180003  0.000003  8.000000  -0.000001  5.000000  0.000000
0.000006  0.000000  0.000000  0.000000  -21.784000  6.303000  1.000007  46.294998  4.898995  -1.180005  0.000004  8.000000  -0.000002  5.000000  0.000000
0.000007  0.000000  0.000000  0.000000  -21.784000  6.303000  1.000011  46.294997  4.898993  -1.180007  0.000007  7.999999  -0.000003  5.000000  0.000000
0.000009  0.000000  0.000000  0.000000  -21.784000  6.303000  1.000015  46.294995  4.898991  -1.180010  0.000010  7.999999  -0.000004  5.000000  0.000000
0.000010  0.000000  0.000000  0.000000  -21.784001  6.303000  1.000019  46.294993  4.898988  -1.180013  0.000014  7.999998  -0.000005  5.000000  0.000000
0.000013  0.000000  0.000000  0.000000  -21.784001  6.303000  1.000028  46.294989  4.898982  -1.180019  0.000021  7.999998  -0.000008  5.000000  0.000000
0.000015  0.000000  0.000000  0.000000  -21.784001  6.303000  1.000038  46.294985  4.898976  -1.180026  0.000030  7.999997  -0.000012  4.999999  0.000000
0.000018  0.000000  0.000000  0.000000  -21.784002  6.303000  1.000049  46.294979  4.898969  -1.180033  0.000041  7.999995  -0.000016  4.999999  0.000000
0.000020  0.000000  0.000000  0.000000  -21.784002  6.303000  1.000060  46.294972  4.898963  -1.180041  0.000053  7.999994  -0.000020  4.999999  0.000000
0.000023  0.000000  0.000000  0.000000  -21.784003  6.302999  1.000073  46.294965  4.898956  -1.180049  0.000068  7.999993  -0.000026  4.999999  0.000000
0.000027  0.000000  0.000000  0.000000  -21.784004  6.302999  1.000093  46.294951  4.898944  -1.180062  0.000094  7.999990  -0.000036  4.999998  0.000000
0.000031  0.000000  0.000000  0.000000  -21.784005  6.302999  1.000114  46.294935  4.898933  -1.180076  0.000124  7.999986  -0.000048  4.999998  0.000000
0.000035  0.000000  0.000000  0.000000  -21.784006  6.302999  1.000135  46.294916  4.898921  -1.180091  0.000158  7.999983  -0.000061  4.999997  0.000000
0.000039  0.000000  0.000000  0.000000  -21.784008  6.302998  1.000158  46.294895  4.898909  -1.180105  0.000196  7.999979  -0.000076  4.999996  0.000000
0.000043  0.000000  0.000000  0.000000  -21.784009  6.302998  1.000180  46.294871  4.898898  -1.180120  0.000239  7.999974  -0.000092  4.999996  0.000000
0.000049  0.000000  0.000000  0.000000  -21.784012  6.302997  1.000216  46.294830  4.898881  -1.180143  0.000313  7.999966  -0.000120  4.999994  0.000000
0.000055  0.000000  0.000000  0.000000  -21.784016  6.302997  1.000252  46.294783  4.898865  -1.180167  0.000397  7.999957  -0.000153  4.999993  0.000000
0.000061  0.000000  0.000000  0.000000  -21.784019  6.302996  1.000289  46.294731  4.898849  -1.180191  0.000490  7.999947  -0.000188  4.999991  0.000000
0.000068  0.000000  0.000000  0.000000  -21.784023  6.302995  1.000327  46.294672  4.898834  -1.180215  0.000594  7.999935  -0.000228  4.999990  0.000000
0.000074  0.000000  0.000000  0.000000  -21.784028  6.302994  1.000365  46.294608  4.898820  -1.180239  0.000706  7.999923  -0.000271  4.999988  0.000000
0.000085  0.000000  0.000000  0.000000  -21.784037  6.302992  1.000437  46.294473  4.898795  -1.180284  0.000942  7.999897  -0.000361  4.999984  0.000000
0.000097  0.000000  0.000000  0.000000  -21.784047  6.302990  1.000512  46.294319  4.898774  -1.180330  0.001210  7.999868  -0.000463  4.999979  0.000000
0.000108  0.000000  0.000000  0.000000  -21.784059  6.302987  1.000588  46.294145  4.898755  -1.180376  0.001511  7.999835  -0.000577  4.999975  0.000000
0.000120  0.000000  0.000000  0.000000  -21.784072  6.302984  1.000665  46.293952  4.898738  -1.180422  0.001843  7.999798  -0.000702  4.999969  0.000000
0.000132  0.000000  0.000000  0.000000  -21.784087  6.302981  1.000745  46.293739  4.898725  -1.180469  0.002207  7.999758  -0.000839  4.999964  0.000000
0.000212  0.000000  0.000000  0.000000  -21.784221  6.302949  1.001344  46.291741  4.898702  -1.180802  0.005545  7.999381  -0.002062  4.999916  0.000000
0.000292  0.000000  0.000000  0.000000  -21.784415  6.302901  1.002029  46.288845  4.898802  -1.181144  0.010246  7.998835  -0.003730  4.999858  0.000000
0.000372  0.000000  0.000000  0.000000  -21.784667  6.302837  1.002801  46.285080  4.899021  -1.181490  0.016194  7.998123  -0.005765  4.999796  0.000000
0.000452  0.000000  0.000000  0.000000  -21.784976  6.302756  1.003659  46.280474  4.899354  -1.181833  0.023272  7.997251  -0.008091  4.999736  0.000000
0.000585  0.000000  0.000000  0.000000  -21.785610  6.302583  1.005276  46.271053  4.900147  -1.182385  0.037222  7.995457  -0.012409  4.999657  0.000000
0.000717  0.000000  0.000000  0.000000  -21.786388  6.302360  1.007136  46.259521  4.901222  -1.182893  0.053501  7.993250  -0.017030  4.999627  0.000000
0.000850  0.000000  0.000000  0.000000  -21.787305  6.302083  1.009237  46.246005  4.902562  -1.183334  0.071648  7.990647  -0.021668  4.999673  0.000000
0.000983  0.000000  0.000000  0.000000  -21.788351  6.301752  1.011579  46.230625  4.904148  -1.183691  0.091244  7.987668  -0.026067  4.999815  0.000000
0.001116  0.000000  0.000000  0.000000  -21.789521  6.301363  1.014161  46.213497  4.905961  -1.183946  0.111903  7.984331  -0.029997  5.000076  0.000000
0.001412  0.000000  0.000000  0.000000  -21.792531  6.300285  1.020754  46.169634  4.910738  -1.184073  0.159966  7.975708  -0.036044  5.001173  0.000000
0.001708  0.000000  0.000000  0.000000  -21.796038  6.298898  1.028476  46.118835  4.916393  -1.183492  0.208120  7.965602  -0.036853  5.003124  0.000000
0.002003  0.000000  0.000000  0.000000  -21.799964  6.297189  1.037264  46.062201  4.922769  -1.182110  0.253501  7.954212  -0.030952  5.006067  0.000000
0.002299  0.000000  0.000000  0.000000  -21.804234  6.295146  1.047046  46.000758  4.929723  -1.179869  0.293755  7.941730  -0.017246  5.010106  0.000000
0.002595  0.000000  0.000000  0.000000  -21.808775  6.292760  1.057740  45.935462  4.937124  -1.176741  0.326986  7.928339  0.005026  5.015318  0.000000
0.002891  0.000000  0.000000  0.000000  -21.813519  6.290026  1.069255  45.867198  4.944855  -1.172726  0.351711  7.914217  0.036333  5.021751  0.000000
0.003221  0.000000  0.000000  0.000000  -21.818970  6.286557  1.082959  45.788496  4.953746  -1.167220  0.367890  7.897799  0.082219  5.030405  0.000000
0.003551  0.000000  0.000000  0.000000  -21.824503  6.282646  1.097426  45.708147  4.962792  -1.160694  0.371050  7.880904  0.139578  5.040614  0.000000
0.003881  0.000000  0.000000  0.000000  -21.830036  6.278293  1.112512  45.627099  4.971881  -1.153227  0.360532  7.863744  0.208114  5.052356  0.000000
0.004082  0.000000  0.000000  0.000000  -21.833362  6.275435  1.121914  45.577920  4.977378  -1.148275  0.347311  7.853280  0.254983  5.060217  0.000000
0.004223  0.000000  0.000000  0.000000  -21.835674  6.273330  1.128611  45.543485  4.981220  -1.144621  0.334934  7.845932  0.290192  5.066065  0.000000
0.004333  0.000000  0.000000  0.000000  -21.837468  6.271623  1.133905  45.516597  4.984217  -1.141664  0.323457  7.840184  0.319065  5.070832  0.000000
0.004444  0.000000  0.000000  0.000000  -21.839243  6.269868  1.139231  45.489844  4.987195  -1.138630  0.310436  7.834455  0.349011  5.075756  0.000000
0.004554  0.000000  0.000000  0.000000  -21.840997  6.268064  1.144582  45.463249  4.990153  -1.135525  0.295882  7.828753  0.379995  5.080833  0.000000
0.004665  0.000000  0.000000  0.000000  -21.842726  6.266213  1.149955  45.436839  4.993088  -1.132353  0.279812  7.823082  0.411983  5.086061  0.000000
0.004756  0.000000  0.000000  0.000000  -21.844131  6.264652  1.154394  45.415239  4.995487  -1.129694  0.265450  7.818440  0.439058  5.090477  0.000000
0.004847  0.000000  0.000000  0.000000  -21.845516  6.263059  1.158840  45.393793  4.997868  -1.126996  0.250085  7.813826  0.466767  5.094992  0.000000
0.004938  0.000000  0.000000  0.000000  -21.846881  6.261434  1.163291  45.372512  5.000230  -1.124262  0.233733  7.809244  0.495084  5.099602  0.000000
0.005029  0.000000  0.000000  0.000000  -21.848225  6.259777  1.167744  45.351409  5.002573  -1.121495  0.216407  7.804697  0.523989  5.104305  0.000000
0.005120  0.000000  0.000000  0.000000  -21.849546  6.258088  1.172198  45.330494  5.004894  -1.118697  0.198125  7.800188  0.553456  5.109100  0.000000
0.005289  0.000000  0.000000  0.000000  -21.851938  6.254866  1.180465  45.292158  5.009150  -1.113427  0.161661  7.791917  0.609639  5.118249  0.000000
0.005459  0.000000  0.000000  0.000000  -21.854242  6.251536  1.188704  45.254577  5.013326  -1.108082  0.122071  7.783803  0.667521  5.127691  0.000000
0.005628  0.000000  0.000000  0.000000  -21.856451  6.248100  1.196899  45.217815  5.017418  -1.102680  0.079488  7.775863  0.726937  5.137412  0.000000
0.005797  0.000000  0.000000  0.000000  -21.858560  6.244560  1.205033  45.181927  5.021422  -1.097242  0.034051  7.768112  0.787718  5.147396  0.000000
0.005966  0.000000  0.000000  0.000000  -21.860562  6.240917  1.213092  45.146966  5.025335  -1.091787  -0.014090  7.760564  0.849693  5.157628  0.000000
0.006146  0.000000  0.000000  0.000000  -21.862567  6.236937  1.221549  45.110904  5.029390  -1.085995  -0.067999  7.752783  0.916621  5.168748  0.000000
